<?xml version="1.0" standalone="no"?>
<!DOCTYPE svg PUBLIC "-//W3C//DTD SVG 20010904//EN"
 "http://www.w3.org/TR/2001/REC-SVG-20010904/DTD/svg10.dtd">
<svg version="1.0" xmlns="http://www.w3.org/2000/svg"
 width="192.000000pt" height="192.000000pt" viewBox="0 0 192.000000 192.000000"
 preserveAspectRatio="xMidYMid meet">
<metadata>
Created by potrace 1.14, written by Peter Selinger 2001-2017
</metadata>
<g transform="translate(0.000000,192.000000) scale(0.100000,-0.100000)"
fill="#000000" stroke="none">
<path d="M815 1875 c-203 -46 -284 -189 -279 -491 2 -143 15 -201 67 -293 74
-132 241 -245 356 -242 56 1 81 8 148 42 128 65 233 203 265 349 14 64 16 226
4 320 -23 179 -120 287 -286 318 -55 10 -228 8 -275 -3z m37 -331 c37 -41 92
-71 158 -89 48 -13 185 -13 263 0 53 8 50 15 49 -90 0 -93 -12 -142 -52 -228
-50 -106 -194 -215 -299 -225 -92 -8 -236 84 -306 197 -48 79 -66 144 -70 261
-2 66 1 80 22 112 30 44 81 77 138 88 62 12 63 12 97 -26z"/>
<path d="M727 1424 c-2 -2 -20 -5 -42 -8 -21 -3 -42 -11 -46 -18 -12 -18 -11
-56 1 -63 6 -3 10 -17 10 -30 0 -35 19 -71 44 -84 53 -29 175 -18 204 17 7 10
22 36 33 60 11 23 24 42 29 42 5 0 21 -24 35 -54 18 -39 34 -57 57 -67 42 -17
136 -17 173 1 29 15 34 25 61 145 10 45 -22 57 -151 57 -51 0 -94 -6 -119 -16
-42 -18 -92 -21 -100 -7 -10 15 -177 37 -189 25z m145 -46 c34 -12 41 -32 24
-71 -19 -45 -45 -65 -94 -72 -36 -4 -84 9 -110 30 -1 1 -5 20 -8 43 -4 33 -2
44 16 62 18 18 31 21 83 19 34 -1 74 -6 89 -11z m353 -12 c18 -28 11 -84 -14
-110 -24 -23 -106 -28 -144 -7 -28 15 -60 81 -51 105 8 22 51 33 127 34 59 0
70 -3 82 -22z"/>
<path d="M640 864 c-178 -96 -288 -160 -321 -185 -39 -31 -90 -119 -109 -189
-7 -25 -15 -52 -18 -60 -9 -26 -12 -43 -19 -96 -5 -50 -4 -53 35 -92 78 -78
191 -131 347 -163 126 -26 224 -34 420 -33 232 0 323 11 480 56 136 38 276
132 291 194 7 26 -10 114 -36 194 -50 155 -76 181 -290 297 -213 116 -222 119
-240 93 -5 -7 -70 -43 -80 -45 -3 0 -16 -7 -30 -15 -14 -7 -26 -13 -27 -12
-16 10 -22 1 -65 -105 -7 -18 -16 -33 -19 -33 -3 0 -18 31 -33 70 -26 66 -30
70 -69 81 -38 10 -65 23 -132 65 -17 11 -29 8 -85 -22z m365 -411 c-4 -10 -8
-25 -10 -33 -30 -120 -51 -168 -67 -152 -8 8 -3 39 17 107 23 78 32 95 48 95
14 0 17 -4 12 -17z m-125 -45 c0 -15 -31 -37 -52 -38 -32 0 -29 -20 5 -35 40
-17 63 -40 48 -50 -12 -7 -141 50 -141 62 0 17 16 29 60 48 25 10 49 22 54 26
11 10 26 2 26 -13z m263 -24 c38 -17 42 -22 29 -39 -12 -17 -121 -69 -129 -61
-13 12 12 39 46 51 27 9 30 13 19 22 -7 7 -26 16 -41 22 -17 7 -27 18 -27 30
0 19 2 19 33 5 17 -8 49 -21 70 -30z"/>
</g>
</svg>
